# xmcd CD database file
# Copyright (C) 1997 Ti Kan
# 
# Track frame offsets:
#     182
#     17940
#     34887
#     49995
#     66267
#     77752
#     93087
#     110537
#     124322
#     141945
#     155905
#     170447
# 
# Disc length: 2501 seconds
# 
# Revision: 1
# Processed by: cddbd v1.4b41PL1 Copyright (c) Steve Scherf et al.
# Submitted via: DiscPlay 4.0.4
# 
DISCID=aa09c30c
DTITLE=Raz o Brasileira - Raz o Brasileira
DYEAR=1900
DGENRE=
TTITLE0=Eu Menti
TTITLE1=Quem   Voc  ?
TTITLE2=Revela  o
TTITLE3=Voc    A Solid o
TTITLE4=Maluco Beleza
TTITLE5=Luar de Mel
TTITLE6=Naturalmente
TTITLE7=Afinal
TTITLE8=De Repente, Calif rnia
TTITLE9=R u Confesso
TTITLE10=Andan a
TTITLE11=Faixa Nobre
EXTD=
EXTT0=
EXTT1=
EXTT2=
EXTT3=
EXTT4=
EXTT5=
EXTT6=
EXTT7=
EXTT8=Adivinha o Qu  ?\nUm Certo Algu m\nO  nico Rom ntico\nComo Uma Onda (Z
EXTT8=en Surfismo]\n
EXTT9=
EXTT10=
EXTT11=
PLAYORDER=
